<svg xmlns="http://www.w3.org/2000/svg" viewBox="0 0 16 16" id="mobile">
  <symbol id="root">
    <path fill="white" stroke="white" stroke-width="1.1" d="M4.813.502C3.813.502 3 1.314 3 2.314v11.873c0 1 .813 1.813 1.813 1.813h5.875c1 0 1.812-.813 1.812-1.813V2.315c0-1-.813-1.812-1.813-1.812H4.814zm0 .5h5.875c.723 0 1.312.588 1.312 1.312v10.188H3.5V2.314c0-.725.589-1.312 1.313-1.312zm1.921 1.521v.5H8.75v-.5H6.734zM3.5 13.002H12v1.187c0 .724-.588 1.313-1.312 1.313H4.812A1.314 1.314 0 0 1 3.5 14.189v-1.187z"></path>
  </symbol>
</svg>
